<svg width="114" height="114" viewBox="0 0 114 114" fill="none" xmlns="http://www.w3.org/2000/svg">
<path d="M56.9463 113.893C88.3969 113.893 113.893 88.3969 113.893 56.9463C113.893 25.4957 88.3969 0 56.9463 0C25.4957 0 0 25.4957 0 56.9463C0 88.3969 25.4957 113.893 56.9463 113.893Z" fill="#E22222"/>
<path fill-rule="evenodd" clip-rule="evenodd" d="M49.3229 70.8467L47.0809 21.6577C46.5877 10.5823 67.3036 10.672 66.8104 21.6577L64.5684 70.8467V74.8823C64.5565 76.8962 63.7482 78.8236 62.3199 80.2434C60.8917 81.6633 58.9596 82.4602 56.9456 82.4602C54.924 82.4602 52.9851 81.6571 51.5556 80.2276C50.126 78.798 49.3229 76.8591 49.3229 74.8375V70.8467Z" fill="white"/>
<path d="M56.9451 100.621C61.1302 100.621 64.523 97.2279 64.523 93.0427C64.523 88.8576 61.1302 85.4648 56.9451 85.4648C52.7599 85.4648 49.3672 88.8576 49.3672 93.0427C49.3672 97.2279 52.7599 100.621 56.9451 100.621Z" fill="white"/>
</svg>

