<svg width="20" height="20" viewBox="0 0 20 20" fill="none" xmlns="http://www.w3.org/2000/svg">
<path d="M1.66699 1.66667H3.117C4.017 1.66667 4.72533 2.44167 4.65033 3.33334L3.95866 11.6333C3.84199 12.9917 4.91699 14.1583 6.28365 14.1583H15.1587C16.3587 14.1583 17.4087 13.175 17.5003 11.9833L17.9503 5.73334C18.0503 4.35001 17.0003 3.225 15.6087 3.225H4.85033" stroke="url(#paint0_linear_2309_8266)" stroke-width="1.5" stroke-miterlimit="10" stroke-linecap="round" stroke-linejoin="round"/>
<path d="M13.5417 18.3333C14.117 18.3333 14.5833 17.867 14.5833 17.2917C14.5833 16.7164 14.117 16.25 13.5417 16.25C12.9664 16.25 12.5 16.7164 12.5 17.2917C12.5 17.867 12.9664 18.3333 13.5417 18.3333Z" stroke="url(#paint1_linear_2309_8266)" stroke-width="1.5" stroke-miterlimit="10" stroke-linecap="round" stroke-linejoin="round"/>
<path d="M6.87467 18.3333C7.44997 18.3333 7.91634 17.867 7.91634 17.2917C7.91634 16.7164 7.44997 16.25 6.87467 16.25C6.29938 16.25 5.83301 16.7164 5.83301 17.2917C5.83301 17.867 6.29938 18.3333 6.87467 18.3333Z" stroke="url(#paint2_linear_2309_8266)" stroke-width="1.5" stroke-miterlimit="10" stroke-linecap="round" stroke-linejoin="round"/>
<path d="M7.5 6.66667H17.5" stroke="url(#paint3_linear_2309_8266)" stroke-width="1.5" stroke-miterlimit="10" stroke-linecap="round" stroke-linejoin="round"/>
<defs>
<linearGradient id="paint0_linear_2309_8266" x1="11.7095" y1="1.66664" x2="11.7095" y2="14.1583" gradientUnits="userSpaceOnUse">
<stop stop-color="#F8971D"/>
<stop offset="1" stop-color="#EE3124"/>
</linearGradient>
<linearGradient id="paint1_linear_2309_8266" x1="13.7843" y1="16.25" x2="13.7843" y2="18.3333" gradientUnits="userSpaceOnUse">
<stop stop-color="#F8971D"/>
<stop offset="1" stop-color="#EE3124"/>
</linearGradient>
<linearGradient id="paint2_linear_2309_8266" x1="7.11735" y1="16.25" x2="7.11735" y2="18.3333" gradientUnits="userSpaceOnUse">
<stop stop-color="#F8971D"/>
<stop offset="1" stop-color="#EE3124"/>
</linearGradient>
<linearGradient id="paint3_linear_2309_8266" x1="13.6649" y1="6.66667" x2="13.6649" y2="7.66667" gradientUnits="userSpaceOnUse">
<stop stop-color="#F8971D"/>
<stop offset="1" stop-color="#EE3124"/>
</linearGradient>
</defs>
</svg>
