<svg width="180" height="196" viewBox="0 0 180 196" fill="none" xmlns="http://www.w3.org/2000/svg">
<path fill-rule="evenodd" clip-rule="evenodd" d="M14.9811 45.7625H124.08C125.382 45.7594 126.637 46.2444 127.599 47.1216C128.561 47.9989 129.158 49.2047 129.274 50.5011L139.014 156.462C139.287 159.427 138.395 162.082 136.388 164.282C134.382 166.482 131.819 167.612 128.842 167.612H10.2197C7.24278 167.612 4.67989 166.482 2.67364 164.282C0.666995 162.083 -0.224411 159.427 0.0478546 156.462L9.78692 50.5011C9.90301 49.2047 10.5008 47.9989 11.4624 47.1216C12.424 46.2444 13.6795 45.7594 14.9811 45.7625Z" fill="#F47120"/>
<path fill-rule="evenodd" clip-rule="evenodd" d="M112.09 45.7625H124.08C125.382 45.7594 126.637 46.2444 127.599 47.1216C128.561 47.9989 129.158 49.2047 129.274 50.5011L139.014 156.462C139.287 159.427 138.395 162.082 136.388 164.282C134.381 166.482 131.819 167.612 128.842 167.612H10.2197C7.24277 167.612 4.67988 166.482 2.67324 164.282C1.66934 163.182 0.944727 161.968 0.504883 160.657H111.454C114.431 160.657 116.994 159.527 119.001 157.327C121.007 155.127 121.899 152.472 121.626 149.507L112.09 45.7625Z" fill="url(#paint0_linear_55_5654)"/>
<path fill-rule="evenodd" clip-rule="evenodd" d="M47.6781 58.9855C47.6781 61.2902 45.8098 63.1586 43.5051 63.1586C41.2004 63.1586 39.332 61.2902 39.332 58.9855V30.1988C39.332 21.8898 42.7281 14.3391 48.1996 8.86758C53.6711 3.39609 61.2219 0 69.5309 0C77.8398 0 85.3906 3.39609 90.8621 8.86758C96.3336 14.3391 99.7297 21.8902 99.7297 30.1988V58.9852C99.7297 61.2898 97.8613 63.1582 95.5566 63.1582C93.252 63.1582 91.3836 61.2898 91.3836 58.9852V30.1988C91.3836 24.1938 88.9238 18.7309 84.9609 14.7684C80.998 10.8055 75.5359 8.3457 69.5305 8.3457C63.5254 8.3457 58.0629 10.8055 54.1 14.7684C50.1371 18.7309 47.6773 24.1934 47.6773 30.1988V58.9855H47.6781Z" fill="#8C9BA6"/>
<path d="M135.783 190.68C160.007 186.155 175.976 162.85 171.452 138.626C166.927 114.403 143.622 98.4333 119.398 102.958C95.1743 107.482 79.205 130.788 83.7296 155.011C88.2542 179.235 111.559 195.204 135.783 190.68Z" fill="#B9EA6A"/>
<path fill-rule="evenodd" clip-rule="evenodd" d="M127.551 102.292C152.193 102.292 172.17 122.269 172.17 146.911C172.17 171.554 152.193 191.531 127.551 191.531C126.234 191.531 124.932 191.47 123.645 191.359C146.457 189.379 164.357 170.237 164.357 146.911C164.357 123.585 146.457 104.443 123.645 102.464C124.932 102.352 126.234 102.292 127.551 102.292Z" fill="#A1E42C"/>
<path fill-rule="evenodd" clip-rule="evenodd" d="M105.741 149.553C103.84 147.804 103.717 144.844 105.466 142.943C107.215 141.042 110.175 140.918 112.076 142.668L122.194 151.959L142.953 132.083C144.814 130.293 147.773 130.351 149.563 132.211C151.353 134.072 151.296 137.032 149.435 138.822L125.615 161.628C123.856 163.442 120.961 163.534 119.09 161.812L105.741 149.553Z" fill="#F4F8F8"/>
<defs>
<linearGradient id="paint0_linear_55_5654" x1="85.9232" y1="45.7621" x2="87.585" y2="228.265" gradientUnits="userSpaceOnUse">
<stop stop-color="#F8971D"/>
<stop offset="1" stop-color="#EE3124"/>
</linearGradient>
</defs>
</svg>
