<svg width="50" height="50" viewBox="0 0 50 50" fill="none" xmlns="http://www.w3.org/2000/svg">
<path d="M41.666 12.5V13H30.9785C24.791 13 21.916 15.875 21.916 22.0625V32.7083H20.3118V40.1042H21.916V43.2292H10.3118C9.45768 43.2292 8.74935 42.5208 8.74935 41.6667C8.74935 40.8125 9.45768 40.1042 10.3118 40.1042H17.1868V32.7083H12.4993C5.97852 32.7083 4.22852 31.1042 4.16602 24.7917V12.5C4.16602 5.83332 5.83268 4.16666 12.4993 4.16666H33.3327C39.9993 4.16666 41.666 5.83332 41.666 12.5Z" fill="white"/>
<path d="M41.666 16.2292C41.1452 16.1667 40.541 16.125 39.8952 16.125H30.9785C26.5202 16.125 25.041 17.6042 25.041 22.0625V40.1042C25.0618 41.3958 25.2077 42.4167 25.5202 43.2292C26.2493 45.125 27.8952 45.8333 30.9785 45.8333H39.8952C44.3535 45.8333 45.8327 44.3542 45.8327 39.8958V22.0625C45.8327 18.25 44.7493 16.625 41.666 16.2292ZM35.4368 21.0208C37.2493 21.0208 38.7077 22.4792 38.7077 24.2917C38.7077 26.1042 37.2493 27.5625 35.4368 27.5625C33.6243 27.5625 32.166 26.1042 32.166 24.2917C32.166 22.4792 33.6243 21.0208 35.4368 21.0208ZM35.4368 39.8958C32.9785 39.8958 30.9785 37.8958 30.9785 35.4375C30.9785 34.4167 31.3327 33.4583 31.916 32.7083C32.7285 31.6667 33.9993 30.9792 35.4368 30.9792C36.5618 30.9792 37.5827 31.3958 38.3535 32.0625C39.291 32.8958 39.8952 34.1042 39.8952 35.4375C39.8952 37.8958 37.8952 39.8958 35.4368 39.8958Z" fill="white"/>
<path d="M41.666 16.2292C41.1452 16.1667 40.541 16.125 39.8952 16.125H30.9785C26.5202 16.125 25.041 17.6042 25.041 22.0625V40.1042C25.0618 41.3958 25.2077 42.4167 25.5202 43.2292C26.2493 45.125 27.8952 45.8333 30.9785 45.8333H39.8952C44.3535 45.8333 45.8327 44.3542 45.8327 39.8958V22.0625C45.8327 18.25 44.7493 16.625 41.666 16.2292ZM35.4368 21.0208C37.2493 21.0208 38.7077 22.4792 38.7077 24.2917C38.7077 26.1042 37.2493 27.5625 35.4368 27.5625C33.6243 27.5625 32.166 26.1042 32.166 24.2917C32.166 22.4792 33.6243 21.0208 35.4368 21.0208ZM35.4368 39.8958C32.9785 39.8958 30.9785 37.8958 30.9785 35.4375C30.9785 34.4167 31.3327 33.4583 31.916 32.7083C32.7285 31.6667 33.9993 30.9792 35.4368 30.9792C36.5618 30.9792 37.5827 31.3958 38.3535 32.0625C39.291 32.8958 39.8952 34.1042 39.8952 35.4375C39.8952 37.8958 37.8952 39.8958 35.4368 39.8958Z" fill="white"/>
</svg>
