<svg width="20" height="20" viewBox="0 0 20 20" fill="none" xmlns="http://www.w3.org/2000/svg">
<path d="M13.2275 1.6895C13.9349 1.66952 14.7107 1.99687 15.5576 2.79692C16.4042 3.59675 16.7748 4.35237 16.7949 5.05961C16.8149 5.76697 16.4874 6.54287 15.6875 7.38969L8.8457 14.6319L8.84375 14.6338C8.56852 14.9287 8.01839 15.2248 7.62012 15.2901H7.61719L4.96387 15.7432C4.78984 15.7542 4.73055 15.7666 4.61719 15.7666C4.22164 15.7665 3.87547 15.6304 3.6377 15.4043L3.63574 15.4024L3.52832 15.2872C3.29334 15.0012 3.17064 14.5963 3.22266 14.1319L3.53125 11.4317C3.55286 11.2438 3.62466 11.0005 3.7373 10.7579C3.85046 10.5142 3.98887 10.3062 4.11719 10.1748L4.12305 10.168L10.9648 2.9268C11.7648 2.08012 12.5202 1.70948 13.2275 1.6895ZM13.2764 1.92485C12.4147 1.92485 11.729 2.46425 11.1455 3.08207L4.30566 10.3301C4.16769 10.475 4.05081 10.6797 3.96875 10.8555C3.88582 11.0333 3.80661 11.2496 3.78027 11.4405L3.7793 11.4512L3.4707 14.1514C3.42545 14.531 3.50974 14.9326 3.80762 15.2139C4.10833 15.4978 4.51109 15.5495 4.87598 15.4942L4.88477 15.4932L7.56836 15.0342H7.56934C7.76649 15.0002 7.98146 14.9079 8.15332 14.8155C8.28257 14.7459 8.42424 14.6569 8.54395 14.5567L8.6543 14.4532L8.65625 14.4522L15.498 7.21L15.499 7.20903C16.0305 6.6432 16.4905 6.00289 16.5361 5.24907C16.5775 4.56528 16.2745 3.91101 15.6592 3.252L15.377 2.96879C14.6663 2.28604 13.9745 1.92499 13.2764 1.92485Z" fill="#252525" stroke="url(#paint0_linear_2389_88)"/>
<path d="M9.90234 4.08688C9.95211 4.0816 10.0019 4.1042 10.0293 4.1484L10.0488 4.20113C10.4033 6.4382 12.2168 8.15856 14.4756 8.38082H14.4766C14.5368 8.38691 14.5861 8.44271 14.584 8.50973C14.5709 8.57502 14.5113 8.6247 14.4502 8.62496H14.417C12.0558 8.37961 10.1594 6.58366 9.79395 4.23629C9.78421 4.16977 9.82793 4.10301 9.90234 4.08688Z" fill="#252525" stroke="url(#paint1_linear_2389_88)"/>
<path d="M2.5 18.2083H17.5C17.5301 18.2083 17.5613 18.2208 17.5869 18.2464C17.6126 18.2721 17.625 18.3032 17.625 18.3333C17.625 18.3635 17.6126 18.3946 17.5869 18.4202C17.5613 18.4459 17.5301 18.4583 17.5 18.4583H2.5C2.46985 18.4583 2.43873 18.4459 2.41309 18.4202C2.38744 18.3946 2.375 18.3635 2.375 18.3333C2.375 18.3032 2.38744 18.2721 2.41309 18.2464C2.43873 18.2208 2.46985 18.2083 2.5 18.2083Z" fill="#252525" stroke="url(#paint2_linear_2389_88)"/>
<defs>
<linearGradient id="paint0_linear_2389_88" x1="11.7023" y1="1.18848" x2="11.7023" y2="16.2666" gradientUnits="userSpaceOnUse">
<stop stop-color="#F8971D"/>
<stop offset="1" stop-color="#EE3124"/>
</linearGradient>
<linearGradient id="paint1_linear_2389_88" x1="12.8643" y1="3.58491" x2="12.8643" y2="9.12499" gradientUnits="userSpaceOnUse">
<stop stop-color="#F8971D"/>
<stop offset="1" stop-color="#EE3124"/>
</linearGradient>
<linearGradient id="paint2_linear_2389_88" x1="11.8929" y1="17.7083" x2="11.8929" y2="18.9583" gradientUnits="userSpaceOnUse">
<stop stop-color="#F8971D"/>
<stop offset="1" stop-color="#EE3124"/>
</linearGradient>
</defs>
</svg>
