<svg width="45" height="45" viewBox="0 0 45 45" fill="none" xmlns="http://www.w3.org/2000/svg">
<path d="M33.75 5.625H11.25C7.10625 5.625 3.75 8.9625 3.75 13.0687V31.9313C3.75 36.0375 7.10625 39.375 11.25 39.375H33.75C37.8938 39.375 41.25 36.0375 41.25 31.9313V13.0687C41.25 8.9625 37.8938 5.625 33.75 5.625ZM15.9375 13.4438C18.3187 13.4438 20.2688 15.3937 20.2688 17.775C20.2688 20.1562 18.3187 22.1062 15.9375 22.1062C13.5563 22.1062 11.6063 20.1562 11.6063 17.775C11.6063 15.3937 13.5563 13.4438 15.9375 13.4438ZM23.1937 31.2375C23.025 31.425 22.7625 31.5375 22.5 31.5375H9.375C9.1125 31.5375 8.85 31.425 8.68125 31.2375C8.5125 31.05 8.41875 30.7875 8.4375 30.525C8.75625 27.375 11.2688 24.8812 14.4188 24.5812C15.4125 24.4875 16.4438 24.4875 17.4375 24.5812C20.5875 24.8812 23.1187 27.375 23.4187 30.525C23.4562 30.7875 23.3625 31.05 23.1937 31.2375ZM35.625 31.4062H31.875C31.1063 31.4062 30.4688 30.7687 30.4688 30C30.4688 29.2313 31.1063 28.5938 31.875 28.5938H35.625C36.3937 28.5938 37.0312 29.2313 37.0312 30C37.0312 30.7687 36.3937 31.4062 35.625 31.4062ZM35.625 23.9062H28.125C27.3563 23.9062 26.7188 23.2687 26.7188 22.5C26.7188 21.7313 27.3563 21.0938 28.125 21.0938H35.625C36.3937 21.0938 37.0312 21.7313 37.0312 22.5C37.0312 23.2687 36.3937 23.9062 35.625 23.9062ZM35.625 16.4062H26.25C25.4813 16.4062 24.8438 15.7687 24.8438 15C24.8438 14.2313 25.4813 13.5938 26.25 13.5938H35.625C36.3937 13.5938 37.0312 14.2313 37.0312 15C37.0312 15.7687 36.3937 16.4062 35.625 16.4062Z" fill="white"/>
</svg>
