<svg width="50" height="50" viewBox="0 0 50 50" fill="none" xmlns="http://www.w3.org/2000/svg">
<path d="M8.33333 12.6687C8.33333 9.2 11.6313 5.42917 14.875 3.86875C14.4857 3.48473 14.1303 3.06792 13.8125 2.62292C13.0375 1.52292 13.9146 0 15.2604 0H20.15C21.5729 0 22.35 1.61667 21.5062 2.7625C21.2146 3.15833 20.8854 3.52917 20.5437 3.86875C23.7875 5.43125 27.0812 9.2 27.0812 12.6667C27.0812 16.0208 24.5125 18.7479 21.3521 18.7479H14.0604C10.9 18.7479 8.33125 16.0187 8.33125 12.6667L8.33333 12.6687ZM48.225 18.0854C47.6986 17.603 47.0818 17.2298 46.4102 16.9873C45.7386 16.7449 45.0256 16.638 44.3125 16.6729C43.6056 16.702 42.9114 16.8706 42.2699 17.1692C41.6284 17.4678 41.0524 17.8903 40.575 18.4125L33.1979 26.1979C33.2646 26.6354 33.3333 27.0729 33.3333 27.5271C33.3244 29.6372 32.5591 31.6741 31.1765 33.2681C29.7939 34.8621 27.8856 35.9075 25.7979 36.2146L16.9396 37.4562C16.4011 37.5171 15.8601 37.3658 15.4314 37.0344C15.0026 36.7029 14.7199 36.2175 14.6432 35.681C14.5665 35.1446 14.7018 34.5993 15.0205 34.161C15.3391 33.7227 15.816 33.4258 16.35 33.3333L25.0208 32.1187C26.9708 31.8396 28.6625 30.4396 29.0625 28.5104C29.2075 27.8372 29.2002 27.1401 29.0411 26.47C28.882 25.8 28.5752 25.174 28.143 24.6378C27.7109 24.1016 27.1644 23.6688 26.5434 23.371C25.9225 23.0732 25.2428 22.918 24.5542 22.9167H8.33125C6.12147 22.9172 4.00239 23.7954 2.44004 25.3582C0.877687 26.9209 -6.90555e-08 29.0402 0 31.25V41.6667C0 43.8768 0.877974 45.9964 2.44078 47.5592C4.00358 49.122 6.1232 50 8.33333 50H17.2125C20.1022 50 22.9602 49.3988 25.605 48.2345C28.2498 47.0703 30.6234 45.3686 32.575 43.2375L48.6208 25.7188C49.5692 24.6485 50.0594 23.2486 49.9858 21.8205C49.9121 20.3924 49.2806 19.0503 48.2271 18.0833L48.225 18.0854Z" fill="white"/>
</svg>
