<svg width="36" height="36" viewBox="0 0 36 36" fill="none" xmlns="http://www.w3.org/2000/svg">
<path fill-rule="evenodd" clip-rule="evenodd" d="M17.9867 4.4967C14.3228 4.4967 13.8641 4.51199 12.4252 4.57764C10.9889 4.6433 10.0077 4.87173 9.14976 5.20538C8.25042 5.54354 7.43472 6.07415 6.76022 6.76124C6.07422 7.43497 5.54329 8.25009 5.20436 9.14989C4.87251 10.0079 4.64317 10.9899 4.57752 12.4262C4.51277 13.8642 4.49658 14.322 4.49658 17.9868C4.49658 21.6516 4.51187 22.1094 4.57752 23.5483C4.64317 24.9846 4.87161 25.9657 5.20526 26.8237C5.54341 27.723 6.07402 28.5387 6.76112 29.2133C7.43486 29.8992 8.24998 30.4302 9.14976 30.7691C10.0077 31.1019 10.9889 31.3303 12.4252 31.3959C13.8641 31.4616 14.3228 31.4769 17.9867 31.4769C21.6506 31.4769 22.1092 31.4616 23.5482 31.3959C24.9844 31.3303 25.9656 31.1019 26.8236 30.7682C27.7229 30.4301 28.5386 29.8994 29.2131 29.2124C29.8991 28.5386 30.4301 27.7235 30.769 26.8237C31.1017 25.9657 31.3302 24.9846 31.3958 23.5483C31.4615 22.1094 31.4768 21.6507 31.4768 17.9868C31.4768 14.3229 31.4615 13.8642 31.3958 12.4253C31.3302 10.989 31.1017 10.0079 30.7681 9.14989C30.4294 8.24971 29.8984 7.43424 29.2122 6.76034C28.5385 6.07434 27.7234 5.54341 26.8236 5.20448C25.9656 4.87263 24.9835 4.6433 23.5473 4.57764C22.1092 4.51289 21.6515 4.4967 17.9867 4.4967ZM17.9867 6.92762C21.5885 6.92762 22.0157 6.94111 23.4385 7.00586C24.7533 7.06612 25.4674 7.28466 25.9431 7.47082C26.5727 7.71454 27.0223 8.00773 27.4945 8.47898C27.9666 8.95113 28.2589 9.4008 28.5027 10.0303C28.6879 10.5061 28.9074 11.2202 28.9676 12.535C29.0324 13.9578 29.0459 14.3849 29.0459 17.9868C29.0459 21.5887 29.0324 22.0158 28.9676 23.4386C28.9074 24.7534 28.6888 25.4675 28.5027 25.9433C28.2867 26.5292 27.9423 27.0593 27.4945 27.4946C27.0593 27.9425 26.5291 28.287 25.9431 28.5028C25.4674 28.688 24.7533 28.9075 23.4385 28.9677C22.0157 29.0325 21.5894 29.046 17.9867 29.046C14.3839 29.046 13.9576 29.0325 12.5349 28.9677C11.22 28.9075 10.506 28.6889 10.0302 28.5028C9.44426 28.2869 8.91414 27.9424 8.47886 27.4946C8.03115 27.0593 7.68665 26.5292 7.4707 25.9433C7.28543 25.4675 7.06599 24.7534 7.00574 23.4386C6.94099 22.0158 6.9275 21.5887 6.9275 17.9868C6.9275 14.3849 6.94099 13.9578 7.00574 12.535C7.06599 11.2202 7.28453 10.5061 7.4707 10.0303C7.71442 9.4008 8.0076 8.95113 8.47886 8.47898C8.91408 8.03115 9.44422 7.68664 10.0302 7.47082C10.506 7.28556 11.22 7.06612 12.5349 7.00586C13.9576 6.94111 14.3848 6.92762 17.9867 6.92762V6.92762Z" fill="url(#paint0_linear_197_8010)"/>
<path fill-rule="evenodd" clip-rule="evenodd" d="M17.9866 22.4879C17.3955 22.4879 16.8102 22.3715 16.2641 22.1453C15.718 21.9191 15.2218 21.5875 14.8038 21.1695C14.3858 20.7516 14.0543 20.2553 13.8281 19.7092C13.6019 19.1631 13.4854 18.5778 13.4854 17.9867C13.4854 17.3956 13.6019 16.8103 13.8281 16.2642C14.0543 15.7181 14.3858 15.2219 14.8038 14.8039C15.2218 14.3859 15.718 14.0543 16.2641 13.8281C16.8102 13.6019 17.3955 13.4855 17.9866 13.4855C19.1804 13.4855 20.3253 13.9597 21.1695 14.8039C22.0136 15.648 22.4878 16.7929 22.4878 17.9867C22.4878 19.1805 22.0136 20.3254 21.1695 21.1695C20.3253 22.0137 19.1804 22.4879 17.9866 22.4879V22.4879ZM17.9866 11.0528C16.1477 11.0528 14.384 11.7833 13.0836 13.0837C11.7833 14.384 11.0527 16.1477 11.0527 17.9867C11.0527 19.8257 11.7833 21.5894 13.0836 22.8897C14.384 24.1901 16.1477 24.9206 17.9866 24.9206C19.8256 24.9206 21.5893 24.1901 22.8897 22.8897C24.19 21.5894 24.9205 19.8257 24.9205 17.9867C24.9205 16.1477 24.19 14.384 22.8897 13.0837C21.5893 11.7833 19.8256 11.0528 17.9866 11.0528V11.0528ZM26.9378 10.9269C26.9378 11.3616 26.7651 11.7785 26.4577 12.0859C26.1503 12.3932 25.7334 12.5659 25.2987 12.5659C24.864 12.5659 24.4471 12.3932 24.1397 12.0859C23.8324 11.7785 23.6597 11.3616 23.6597 10.9269C23.6597 10.4922 23.8324 10.0753 24.1397 9.76791C24.4471 9.46053 24.864 9.28784 25.2987 9.28784C25.7334 9.28784 26.1503 9.46053 26.4577 9.76791C26.7651 10.0753 26.9378 10.4922 26.9378 10.9269" fill="url(#paint1_linear_197_8010)"/>
<defs>
<linearGradient id="paint0_linear_197_8010" x1="21.1295" y1="4.49663" x2="21.1295" y2="31.4768" gradientUnits="userSpaceOnUse">
<stop stop-color="#F8971D"/>
<stop offset="1" stop-color="#EE3124"/>
</linearGradient>
<linearGradient id="paint1_linear_197_8010" x1="20.8456" y1="9.2878" x2="20.8456" y2="24.9206" gradientUnits="userSpaceOnUse">
<stop stop-color="#F8971D"/>
<stop offset="1" stop-color="#EE3124"/>
</linearGradient>
</defs>
</svg>
