<svg width="20" height="20" viewBox="0 0 20 20" fill="none" xmlns="http://www.w3.org/2000/svg">
<path d="M10.0001 18.9584C9.35008 18.9584 8.71675 18.6251 8.28341 18.0417L7.44175 16.9167C7.26675 16.6834 7.03342 16.5501 6.78342 16.5334C6.53342 16.5251 6.28342 16.6334 6.08342 16.8417L5.60841 16.4167L6.06675 16.8417C4.86675 18.1251 3.94175 18.0251 3.50008 17.8501C3.05008 17.6751 2.29175 17.1001 2.29175 15.2501V5.86675C2.29175 2.16675 3.35841 1.04175 6.85008 1.04175H13.1501C16.6417 1.04175 17.7084 2.16675 17.7084 5.86675V15.2501C17.7084 17.0917 16.9501 17.6667 16.5001 17.8501C16.0584 18.0251 15.1417 18.1251 13.9334 16.8417C13.7334 16.6251 13.4834 16.5084 13.2251 16.5334C12.9751 16.5501 12.7334 16.6834 12.5584 16.9167L11.7167 18.0417C11.2834 18.6251 10.6501 18.9584 10.0001 18.9584ZM6.73341 15.2751C6.76675 15.2751 6.80841 15.2751 6.84175 15.2751C7.45841 15.3084 8.04175 15.6334 8.43341 16.1584L9.27508 17.2834C9.68342 17.8251 10.3084 17.8251 10.7167 17.2834L11.5584 16.1584C11.9584 15.6334 12.5334 15.3084 13.1584 15.2751C13.7751 15.2417 14.3917 15.5001 14.8417 15.9834C15.4751 16.6584 15.8834 16.7417 16.0334 16.6834C16.2334 16.6001 16.4501 16.1167 16.4501 15.2501V5.86675C16.4501 2.85841 15.9251 2.29175 13.1417 2.29175H6.85008C4.06675 2.29175 3.54175 2.85841 3.54175 5.86675V15.2501C3.54175 16.1251 3.75841 16.6084 3.95841 16.6834C4.10008 16.7417 4.51675 16.6584 5.15008 15.9834C5.60008 15.5251 6.15841 15.2751 6.73341 15.2751Z" fill="#676D75"/>
<path d="M13.525 9.79175H8.94165C8.59998 9.79175 8.31665 9.50841 8.31665 9.16675C8.31665 8.82508 8.59998 8.54175 8.94165 8.54175H13.525C13.8667 8.54175 14.15 8.82508 14.15 9.16675C14.15 9.50841 13.8667 9.79175 13.525 9.79175Z" fill="#676D75"/>
<path d="M13.525 6.45825H8.94165C8.59998 6.45825 8.31665 6.17492 8.31665 5.83325C8.31665 5.49159 8.59998 5.20825 8.94165 5.20825H13.525C13.8667 5.20825 14.15 5.49159 14.15 5.83325C14.15 6.17492 13.8667 6.45825 13.525 6.45825Z" fill="#676D75"/>
<path d="M6.48324 6.66667C6.0249 6.66667 5.6499 6.29167 5.6499 5.83333C5.6499 5.375 6.0249 5 6.48324 5C6.94157 5 7.31657 5.375 7.31657 5.83333C7.31657 6.29167 6.94157 6.66667 6.48324 6.66667Z" fill="#676D75"/>
<path d="M6.48324 9.99992C6.0249 9.99992 5.6499 9.62492 5.6499 9.16659C5.6499 8.70825 6.0249 8.33325 6.48324 8.33325C6.94157 8.33325 7.31657 8.70825 7.31657 9.16659C7.31657 9.62492 6.94157 9.99992 6.48324 9.99992Z" fill="#676D75"/>
</svg>
