<svg width="20" height="20" viewBox="0 0 20 20" fill="none" xmlns="http://www.w3.org/2000/svg">
<path d="M10.1341 9.05833C10.0508 9.05 9.95078 9.05 9.85911 9.05833C7.87578 8.99166 6.30078 7.36666 6.30078 5.36666C6.30078 3.325 7.95078 1.66666 10.0008 1.66666C12.0424 1.66666 13.7008 3.325 13.7008 5.36666C13.6924 7.36666 12.1174 8.99166 10.1341 9.05833Z" stroke="#292D32" stroke-width="1.5" stroke-linecap="round" stroke-linejoin="round"/>
<path d="M5.96758 12.1333C3.95091 13.4833 3.95091 15.6833 5.96758 17.025C8.25924 18.5583 12.0176 18.5583 14.3092 17.025C16.3259 15.675 16.3259 13.475 14.3092 12.1333C12.0259 10.6083 8.26758 10.6083 5.96758 12.1333Z" stroke="#292D32" stroke-width="1.5" stroke-linecap="round" stroke-linejoin="round"/>
</svg>
