<svg width="45" height="45" viewBox="0 0 45 45" fill="none" xmlns="http://www.w3.org/2000/svg">
<path d="M21.5625 3.75C11.7375 3.75 3.75 11.7375 3.75 21.5625C3.75 31.3875 11.7375 39.375 21.5625 39.375C31.3875 39.375 39.375 31.3875 39.375 21.5625C39.375 11.7375 31.3875 3.75 21.5625 3.75ZM21.5625 25.7812H15.9375C15.1687 25.7812 14.5312 25.1437 14.5312 24.375C14.5312 23.6063 15.1687 22.9688 15.9375 22.9688H21.5625C22.3312 22.9688 22.9688 23.6063 22.9688 24.375C22.9688 25.1437 22.3312 25.7812 21.5625 25.7812ZM27.1875 20.1562H15.9375C15.1687 20.1562 14.5312 19.5188 14.5312 18.75C14.5312 17.9812 15.1687 17.3438 15.9375 17.3438H27.1875C27.9562 17.3438 28.5938 17.9812 28.5938 18.75C28.5938 19.5188 27.9562 20.1562 27.1875 20.1562Z" fill="white"/>
<path d="M39.9383 41.2474C39.6008 41.2474 39.2633 41.1161 39.0195 40.8724L35.532 37.3849C35.0258 36.8786 35.0258 36.0536 35.532 35.5286C36.0383 35.0224 36.8633 35.0224 37.3883 35.5286L40.8758 39.0161C41.382 39.5224 41.382 40.3474 40.8758 40.8724C40.6133 41.1161 40.2758 41.2474 39.9383 41.2474Z" fill="white"/>
</svg>
