<svg width="20" height="20" viewBox="0 0 20 20" fill="none" xmlns="http://www.w3.org/2000/svg">
<path d="M10.0004 1.54175C12.3657 1.54192 14.2914 3.46832 14.2914 5.83374C14.2912 8.19901 12.3656 10.1246 10.0004 10.1248C7.63495 10.1248 5.70855 8.19912 5.70837 5.83374C5.70837 3.46822 7.63484 1.54175 10.0004 1.54175ZM10.0004 1.79175C7.77422 1.79175 5.95837 3.6076 5.95837 5.83374C5.95855 8.05973 7.77433 9.87476 10.0004 9.87476C12.2263 9.87458 14.0412 8.05963 14.0414 5.83374C14.0414 3.60771 12.2264 1.79192 10.0004 1.79175Z" fill="#676D75" stroke="#676D75"/>
<path d="M10 12.375C14.1066 12.375 17.283 15.1341 17.2832 18.333C17.2832 18.3631 17.2707 18.3943 17.2451 18.4199C17.2195 18.4456 17.1884 18.458 17.1582 18.458C17.1281 18.4579 17.0969 18.4455 17.0713 18.4199C17.0458 18.3943 17.0332 18.363 17.0332 18.333C17.033 15.082 13.764 12.625 10 12.625C6.23605 12.6251 2.96702 15.082 2.9668 18.333C2.9668 18.3631 2.95424 18.3943 2.92871 18.4199C2.90307 18.4456 2.87194 18.458 2.8418 18.458C2.81165 18.458 2.78053 18.4456 2.75488 18.4199C2.72935 18.3943 2.7168 18.3631 2.7168 18.333C2.71701 15.1342 5.89343 12.3751 10 12.375Z" fill="#676D75" stroke="#676D75"/>
</svg>
