<svg width="60" height="60" viewBox="0 0 60 60" fill="none" xmlns="http://www.w3.org/2000/svg">
<path d="M26.6992 3.625H33.249C36.0701 3.625 37.5046 4.45168 38.2988 5.44922C39.1206 6.48148 39.3397 7.78643 39.5303 8.95508L39.5312 8.95801L40.0742 12.167V12.623L40.5469 12.6494C44.5905 12.8741 48.6083 13.1731 52.625 13.5723H52.627C53.3958 13.6456 53.9503 14.3215 53.9004 15.0781C53.8248 15.7936 53.2188 16.3251 52.5244 16.3252H52.3535C39.5059 15.0412 26.6895 14.5309 13.957 15.6855L12.7246 15.8027L7.625 16.3027C6.84905 16.3757 6.19513 15.825 6.12207 15.0762C6.04905 14.3263 6.5971 13.6462 7.37109 13.5723H7.37305L12.4727 13.0723C14.7882 12.8482 17.1054 12.6989 19.4316 12.5488L19.8281 12.5234L19.8926 12.1309L20.418 8.93164C20.6213 7.69922 20.8461 6.40289 21.665 5.39355C22.4566 4.41831 23.8841 3.625 26.6992 3.625Z" fill="white" stroke="white"/>
<path d="M14.2002 19.875H45.8008C46.5109 19.8751 47.2024 20.1672 47.708 20.6904C48.1928 21.2181 48.4672 21.9346 48.4258 22.6943L46.876 48.3193C46.7365 50.2594 46.5783 52.2422 45.4658 53.7646C44.3841 55.2451 42.3026 56.4004 38.0254 56.4004H21.9756C17.6994 56.4004 15.6173 55.2395 14.5352 53.7559C13.4213 52.2286 13.2636 50.2425 13.124 48.3135L11.5742 22.6699C11.5328 21.9367 11.8058 21.2181 12.293 20.6885C12.7672 20.173 13.4809 19.875 14.2002 19.875ZM25.8252 40.125C24.5241 40.1251 23.4502 41.1989 23.4502 42.5C23.4502 43.8011 24.5241 44.8749 25.8252 44.875H34.1504C35.4515 44.875 36.5254 43.8011 36.5254 42.5C36.5254 41.1989 35.4515 40.125 34.1504 40.125H25.8252ZM23.75 30.125C22.449 30.1252 21.375 31.199 21.375 32.5C21.375 33.801 22.449 34.8748 23.75 34.875H36.25C37.5511 34.875 38.625 33.8011 38.625 32.5C38.625 31.1989 37.5511 30.125 36.25 30.125H23.75Z" fill="white" stroke="white"/>
</svg>
