<svg width="40" height="40" viewBox="0 0 40 40" fill="none" xmlns="http://www.w3.org/2000/svg">
<path d="M33.929 12.918C33.9212 12.6981 33.8325 12.4888 33.6802 12.33C33.5278 12.1712 33.3225 12.074 33.1032 12.0569C31.6422 11.9208 30.2483 11.3791 29.079 10.4929C28.2112 9.83521 27.4853 9.00896 26.9447 8.06379C26.4042 7.11861 26.0602 6.07398 25.9333 4.99256C25.9162 4.77319 25.819 4.56779 25.6602 4.41548C25.5015 4.26316 25.2922 4.17459 25.0723 4.16663H21.5577C21.443 4.16661 21.3297 4.18944 21.224 4.23381C21.1183 4.27818 21.0227 4.34318 20.9425 4.42501C20.8623 4.50684 20.7992 4.60386 20.757 4.71036C20.7148 4.81688 20.6942 4.93073 20.6965 5.04528V26.0275C20.6868 26.9995 20.3732 27.9438 19.7997 28.7286C19.226 29.5133 18.4213 30.0988 17.4983 30.4031C16.932 30.589 16.3359 30.6665 15.741 30.6316C14.99 30.5905 14.2602 30.3673 13.6147 29.9815C12.6897 29.4338 11.9809 28.5853 11.6066 27.5776C11.2324 26.5701 11.2154 25.4645 11.5586 24.446C11.9106 23.4335 12.5962 22.5706 13.5031 21.9991C14.4099 21.4275 15.4841 21.1811 16.5493 21.3003C16.6673 21.3126 16.7865 21.3001 16.8992 21.2633C17.0118 21.2265 17.1155 21.1663 17.2035 21.0866C17.2913 21.0071 17.3615 20.9098 17.4092 20.8013C17.457 20.6928 17.4813 20.5755 17.4807 20.4568V16.3447C17.4807 16.3447 15.987 16.2393 15.4774 16.2393C14.1705 16.2332 12.8787 16.5187 11.6962 17.0751C10.5136 17.6315 9.47002 18.4445 8.64147 19.4551C7.53964 20.6413 6.75402 22.0856 6.35697 23.6551C5.94954 25.3028 5.97836 27.0281 6.44056 28.6613C6.90277 30.2945 7.78244 31.7791 8.99294 32.9688C9.28295 33.261 9.59426 33.5311 9.92431 33.7771C11.6609 35.1166 13.7939 35.8401 15.987 35.8333C16.4868 35.8336 16.986 35.7983 17.4807 35.7278C19.5667 35.4186 21.4997 34.4521 22.9987 32.9688C23.9152 32.0696 24.6447 30.9981 25.1453 29.816C25.646 28.6336 25.9078 27.3641 25.9158 26.0803V14.5171C27.9447 16.0829 30.389 17.018 32.945 17.2058C33.0638 17.2131 33.183 17.1956 33.2948 17.1546C33.4068 17.1135 33.5088 17.0496 33.5947 16.9671C33.6807 16.8845 33.7485 16.785 33.7938 16.6748C33.8393 16.5647 33.8615 16.4463 33.8588 16.3272V12.918H33.929Z" fill="url(#paint0_linear_197_8014)"/>
<defs>
<linearGradient id="paint0_linear_197_8014" x1="23.2452" y1="4.16654" x2="23.2452" y2="35.8333" gradientUnits="userSpaceOnUse">
<stop stop-color="#F8971D"/>
<stop offset="1" stop-color="#EE3124"/>
</linearGradient>
</defs>
</svg>
