<svg width="20" height="20" viewBox="0 0 20 20" fill="none" xmlns="http://www.w3.org/2000/svg">
<path d="M4.18262 4.68939C8.02206 4.29967 11.9136 4.38244 15.8291 4.70404L17.5088 4.85638C17.5716 4.86252 17.6251 4.92229 17.6182 4.9931L17.6172 5.00287C17.613 5.05783 17.5641 5.10834 17.499 5.10834H17.4502C13.31 4.69478 9.16241 4.52149 5.04102 4.8681L4.21484 4.94427L2.5166 5.10931C2.43702 5.1161 2.37868 5.06345 2.37207 4.99408C2.36485 4.91743 2.4154 4.86283 2.48145 4.85638L4.18164 4.68939H4.18262Z" fill="white" stroke="white"/>
<path d="M8.90723 1.54169H11.0908C11.9619 1.54169 12.3299 1.79324 12.5137 2.02411C12.7251 2.28982 12.7899 2.63673 12.8555 3.03876L12.8564 3.04169L13.04 4.12469V4.12567C13.0457 4.15909 13.0369 4.19228 13.0176 4.21942C12.9982 4.24653 12.9736 4.25983 12.9502 4.26337L12.9404 4.26532C12.907 4.27102 12.8738 4.26312 12.8467 4.24384C12.8194 4.22438 12.8053 4.19895 12.8018 4.17548L12.8008 4.16669L12.6172 3.08368C12.5898 2.91374 12.5624 2.73777 12.5205 2.58954C12.4767 2.43446 12.4027 2.25189 12.2461 2.10126C12.0864 1.94793 11.8934 1.87765 11.71 1.84247C11.5328 1.8085 11.3261 1.80048 11.0996 1.80048H8.91602C8.69223 1.80048 8.48749 1.8069 8.31348 1.83759C8.13404 1.86928 7.93967 1.93377 7.77734 2.08563C7.61724 2.23549 7.54308 2.41981 7.49902 2.57391C7.45696 2.72106 7.42757 2.89808 7.39844 3.07098L7.20703 4.15497L7.20605 4.1618C7.19621 4.22222 7.14335 4.26612 7.08301 4.2663H7.06055L7.01758 4.24872C7.004 4.23997 6.99108 4.22841 6.98047 4.21356C6.95937 4.18393 6.95459 4.15275 6.95898 4.12762V4.12469L7.14258 3.0329V3.03192C7.21262 2.61172 7.2798 2.26922 7.48926 2.01044C7.67092 1.78606 8.03548 1.54177 8.90723 1.54169Z" fill="white" stroke="white"/>
<path d="M15.7207 7.49091C15.7952 7.49944 15.8403 7.56106 15.8359 7.62274L15.835 7.62567L15.2939 16.0153C15.2461 16.6944 15.1916 17.2709 14.8838 17.7009C14.6089 18.0847 14.0408 18.4587 12.6758 18.4587H7.32617C5.96118 18.4587 5.39308 18.0847 5.11816 17.7009C4.88731 17.3784 4.79889 16.9734 4.74902 16.5046L4.70801 16.0153L4.16699 7.62567L4.16602 7.62177C4.16401 7.59397 4.17355 7.56389 4.19727 7.5368C4.2198 7.51118 4.24945 7.49497 4.28027 7.49091C4.36027 7.48967 4.41392 7.5456 4.41895 7.61102L4.95996 15.9987L4.96094 16.0026C4.98313 16.3092 5.00354 16.6104 5.05371 16.8688C5.10493 17.1325 5.19616 17.4069 5.39453 17.6384C5.79543 18.1057 6.46552 18.2087 7.32617 18.2087H12.6758C13.5398 18.2087 14.2131 18.1063 14.6143 17.6384C14.8133 17.4061 14.903 17.1303 14.9531 16.8659C15.0021 16.6071 15.0218 16.3063 15.042 15.9997V15.9987L15.583 7.61102C15.5878 7.54933 15.6456 7.49034 15.7207 7.49091Z" fill="white" stroke="white"/>
<path d="M8.60742 13.625H11.3828C11.4128 13.6251 11.4442 13.6376 11.4697 13.6631C11.4952 13.6887 11.5078 13.7199 11.5078 13.75C11.5078 13.7801 11.4952 13.8113 11.4697 13.8369C11.4442 13.8624 11.4128 13.8749 11.3828 13.875H8.60742C8.57727 13.875 8.54615 13.8626 8.52051 13.8369C8.49486 13.8113 8.48242 13.7801 8.48242 13.75C8.48242 13.7199 8.49486 13.6887 8.52051 13.6631C8.54615 13.6374 8.57727 13.625 8.60742 13.625Z" fill="white" stroke="white"/>
<path d="M12.0827 11.0417H7.91602C7.57435 11.0417 7.29102 10.7584 7.29102 10.4167C7.29102 10.075 7.57435 9.79169 7.91602 9.79169H12.0827C12.4243 9.79169 12.7077 10.075 12.7077 10.4167C12.7077 10.7584 12.4243 11.0417 12.0827 11.0417Z" fill="white"/>
</svg>
