<svg width="45" height="45" viewBox="0 0 45 45" fill="none" xmlns="http://www.w3.org/2000/svg">
<path d="M40.3125 29.0625C40.8375 29.0625 41.25 29.475 41.25 30V31.875C41.25 34.9875 38.7375 37.5 35.625 37.5C35.625 34.4063 33.0937 31.875 30 31.875C26.9063 31.875 24.375 34.4063 24.375 37.5H20.625C20.625 34.4063 18.0937 31.875 15 31.875C11.9063 31.875 9.375 34.4063 9.375 37.5C6.2625 37.5 3.75 34.9875 3.75 31.875V28.125C3.75 27.0937 4.59375 26.25 5.625 26.25H23.4375C26.025 26.25 28.125 24.15 28.125 21.5625V11.25C28.125 10.2187 28.9687 9.375 30 9.375H31.575C32.925 9.375 34.1625 10.1063 34.8375 11.2688L36.0375 13.3688C36.2062 13.6688 35.9812 14.0625 35.625 14.0625C33.0375 14.0625 30.9375 16.1625 30.9375 18.75V24.375C30.9375 26.9625 33.0375 29.0625 35.625 29.0625H40.3125Z" fill="white"/>
<path d="M15 41.25C17.0711 41.25 18.75 39.5711 18.75 37.5C18.75 35.4289 17.0711 33.75 15 33.75C12.9289 33.75 11.25 35.4289 11.25 37.5C11.25 39.5711 12.9289 41.25 15 41.25Z" fill="white"/>
<path d="M30 41.25C32.0711 41.25 33.75 39.5711 33.75 37.5C33.75 35.4289 32.0711 33.75 30 33.75C27.9289 33.75 26.25 35.4289 26.25 37.5C26.25 39.5711 27.9289 41.25 30 41.25Z" fill="white"/>
<path d="M41.25 23.4937V26.25H35.625C34.5937 26.25 33.75 25.4063 33.75 24.375V18.75C33.75 17.7187 34.5937 16.875 35.625 16.875H38.0438L40.7625 21.6375C41.0812 22.2 41.25 22.8375 41.25 23.4937Z" fill="white"/>
<path d="M24.525 3.75H10.6688C6.84375 3.75 3.75 6.84375 3.75 10.6687V22.6312C3.75 23.6625 4.59375 24.5062 5.625 24.5062H22.7812C24.6937 24.5062 26.25 22.95 26.25 21.0375V5.475C26.25 4.51875 25.4812 3.75 24.525 3.75ZM18.8812 13.2562L14.9625 17.0437C14.6813 17.3062 14.325 17.4375 13.9875 17.4375C13.6313 17.4375 13.275 17.3062 13.0125 17.0437L11.1187 15.2437C10.5562 14.7 10.5375 13.8 11.0812 13.2375C11.6062 12.675 12.5062 12.675 13.0687 13.2L13.9875 14.0812L16.9312 11.2312C17.4937 10.6875 18.375 10.7062 18.9188 11.2687C19.4625 11.8312 19.4437 12.7125 18.8812 13.2562Z" fill="white"/>
</svg>
