<svg width="20" height="20" viewBox="0 0 20 20" fill="none" xmlns="http://www.w3.org/2000/svg">
<path d="M14.1667 18.125H5.83341C2.15841 18.125 1.04175 17.0083 1.04175 13.3333V6.66667C1.04175 2.99167 2.15841 1.875 5.83341 1.875H14.1667C17.8417 1.875 18.9584 2.99167 18.9584 6.66667V13.3333C18.9584 17.0083 17.8417 18.125 14.1667 18.125ZM5.83341 3.125C2.85008 3.125 2.29175 3.69167 2.29175 6.66667V13.3333C2.29175 16.3083 2.85008 16.875 5.83341 16.875H14.1667C17.1501 16.875 17.7084 16.3083 17.7084 13.3333V6.66667C17.7084 3.69167 17.1501 3.125 14.1667 3.125H5.83341Z" fill="#676D75"/>
<path d="M15.8334 7.29175H11.6667C11.3251 7.29175 11.0417 7.00841 11.0417 6.66675C11.0417 6.32508 11.3251 6.04175 11.6667 6.04175H15.8334C16.1751 6.04175 16.4584 6.32508 16.4584 6.66675C16.4584 7.00841 16.1751 7.29175 15.8334 7.29175Z" fill="#676D75"/>
<path d="M15.8333 10.625H12.5C12.1583 10.625 11.875 10.3417 11.875 10C11.875 9.65833 12.1583 9.375 12.5 9.375H15.8333C16.175 9.375 16.4583 9.65833 16.4583 10C16.4583 10.3417 16.175 10.625 15.8333 10.625Z" fill="#676D75"/>
<path d="M15.8334 13.9583H14.1667C13.8251 13.9583 13.5417 13.6749 13.5417 13.3333C13.5417 12.9916 13.8251 12.7083 14.1667 12.7083H15.8334C16.1751 12.7083 16.4584 12.9916 16.4584 13.3333C16.4584 13.6749 16.1751 13.9583 15.8334 13.9583Z" fill="#676D75"/>
<path d="M7.08328 10.0333C5.90828 10.0333 4.94995 9.07493 4.94995 7.89993C4.94995 6.72493 5.90828 5.7666 7.08328 5.7666C8.25828 5.7666 9.21662 6.72493 9.21662 7.89993C9.21662 9.07493 8.25828 10.0333 7.08328 10.0333ZM7.08328 7.0166C6.59995 7.0166 6.19995 7.4166 6.19995 7.89993C6.19995 8.38327 6.59995 8.78327 7.08328 8.78327C7.56662 8.78327 7.96662 8.38327 7.96662 7.89993C7.96662 7.4166 7.56662 7.0166 7.08328 7.0166Z" fill="#676D75"/>
<path d="M9.99992 14.2332C9.68326 14.2332 9.40826 13.9916 9.37492 13.6666C9.28326 12.7666 8.55826 12.0416 7.64992 11.9582C7.26659 11.9249 6.88326 11.9249 6.49992 11.9582C5.59159 12.0416 4.86659 12.7582 4.77492 13.6666C4.74159 14.0082 4.43325 14.2666 4.09159 14.2249C3.74992 14.1916 3.49992 13.8832 3.53325 13.5416C3.68325 12.0416 4.87492 10.8499 6.38326 10.7166C6.84159 10.6749 7.30825 10.6749 7.76659 10.7166C9.26659 10.8582 10.4666 12.0499 10.6166 13.5416C10.6499 13.8832 10.3999 14.1916 10.0583 14.2249C10.0416 14.2332 10.0166 14.2332 9.99992 14.2332Z" fill="#676D75"/>
</svg>
