<svg width="20" height="20" viewBox="0 0 20 20" fill="none" xmlns="http://www.w3.org/2000/svg">
<path d="M12.5 1.66675H7.49996C3.33329 1.66675 1.66663 3.33341 1.66663 7.50008V12.5001C1.66663 15.6501 2.61663 17.3751 4.88329 18.0167C5.06663 15.8501 7.29163 14.1417 9.99996 14.1417C12.7083 14.1417 14.9333 15.8501 15.1166 18.0167C17.3833 17.3751 18.3333 15.6501 18.3333 12.5001V7.50008C18.3333 3.33341 16.6666 1.66675 12.5 1.66675ZM9.99996 11.8084C8.34996 11.8084 7.01662 10.4668 7.01662 8.81676C7.01662 7.16676 8.34996 5.83341 9.99996 5.83341C11.65 5.83341 12.9833 7.16676 12.9833 8.81676C12.9833 10.4668 11.65 11.8084 9.99996 11.8084Z" stroke="#676D75" stroke-width="1.5" stroke-linecap="round" stroke-linejoin="round"/>
</svg>
