<svg width="20" height="20" viewBox="0 0 20 20" fill="none" xmlns="http://www.w3.org/2000/svg">
<path d="M10 18.9584C9.41667 18.9584 8.825 18.7334 8.38333 18.2917L6.95831 16.8834C6.60831 16.5334 6.12501 16.3417 5.63334 16.3417H5C3.275 16.3417 1.875 14.9501 1.875 13.2417V4.14175C1.875 2.43341 3.275 1.04175 5 1.04175H15C16.725 1.04175 18.125 2.43341 18.125 4.14175V13.2334C18.125 14.9417 16.725 16.3334 15 16.3334H14.3667C13.875 16.3334 13.3917 16.5334 13.0417 16.8751L11.6167 18.2834C11.175 18.7334 10.5833 18.9584 10 18.9584ZM5 2.29175C3.96667 2.29175 3.125 3.12508 3.125 4.14175V13.2334C3.125 14.2584 3.96667 15.0834 5 15.0834H5.63334C6.45834 15.0834 7.25831 15.4167 7.84164 15.9917L9.26666 17.4001C9.675 17.8001 10.3333 17.8001 10.7417 17.4001L12.1666 15.9917C12.75 15.4167 13.55 15.0834 14.375 15.0834H15C16.0333 15.0834 16.875 14.2501 16.875 13.2334V4.14175C16.875 3.11675 16.0333 2.29175 15 2.29175H5V2.29175Z" fill="#676D75"/>
<path d="M10.0581 8.08325C10.0414 8.08325 10.0164 8.08325 9.99977 8.08325C9.97477 8.08325 9.94145 8.08325 9.91645 8.08325C8.69979 8.04158 7.74976 7.05825 7.74976 5.83325C7.74976 4.59158 8.7581 3.58325 9.99977 3.58325C11.2414 3.58325 12.2498 4.59158 12.2498 5.83325C12.2414 7.05825 11.2915 8.04158 10.0748 8.08325C10.0748 8.08325 10.0664 8.08325 10.0581 8.08325ZM9.99977 4.83325C9.44977 4.83325 8.99976 5.28325 8.99976 5.83325C8.99976 6.37492 9.42478 6.81658 9.95811 6.83325C9.95811 6.82492 10.0081 6.82492 10.0664 6.83325C10.5914 6.79992 10.9998 6.36658 10.9998 5.83325C10.9998 5.28325 10.5498 4.83325 9.99977 4.83325Z" fill="#676D75"/>
<path d="M10 13.9166C9.05 13.9166 8.10001 13.6666 7.35835 13.1749C6.65835 12.7082 6.25 12.0332 6.25 11.3166C6.25 10.5999 6.65001 9.91657 7.35835 9.4499C8.84168 8.46657 11.1583 8.46657 12.6333 9.4499C13.3333 9.91657 13.7417 10.5999 13.7417 11.3082C13.7417 12.0249 13.3416 12.6999 12.6333 13.1749C11.9 13.6749 10.95 13.9166 10 13.9166ZM8.04998 10.4916C7.69164 10.7332 7.5 11.0249 7.5 11.3166C7.5 11.6082 7.69998 11.8999 8.04998 12.1416C9.10831 12.8499 10.8833 12.8499 11.9417 12.1416C12.3 11.8999 12.5 11.6082 12.4917 11.3166C12.4917 11.0249 12.2917 10.7332 11.9417 10.4916C10.8917 9.78324 9.10831 9.78324 8.04998 10.4916Z" fill="#676D75"/>
</svg>

