<svg width="41" height="41" viewBox="0 0 41 41" fill="none" xmlns="http://www.w3.org/2000/svg">
<path d="M20.2986 5.54846C11.9682 5.54846 5.18882 12.0782 5.18588 20.1031C5.18392 22.6693 5.88105 25.1739 7.20287 27.3799L5.05859 34.922L13.0707 32.8982C15.2994 34.064 17.7775 34.6721 20.2927 34.6704H20.2986C28.6289 34.6704 35.4084 28.1397 35.4113 20.1148C35.4133 16.2277 33.8427 12.5687 30.9886 9.8184C28.1355 7.06708 24.3414 5.54944 20.2986 5.54846ZM20.2986 32.2118H20.2937C18.0398 32.2118 15.8289 31.6283 13.9 30.5258L13.4399 30.2634L8.68721 31.4638L9.95615 26.999L9.65752 26.5418C8.40317 24.6287 7.73544 22.3907 7.73649 20.1031C7.73942 13.4323 13.3752 8.00703 20.3035 8.00703C23.6579 8.00801 26.8117 9.26814 29.1841 11.5544C31.5565 13.8406 32.8617 16.8808 32.8597 20.1138C32.8568 26.7846 27.2219 32.2118 20.2976 32.2118H20.2986ZM27.1887 23.1501C26.8107 22.969 24.9543 22.0887 24.6077 21.9663C24.2621 21.8459 24.0104 21.7832 23.7588 22.1475C23.5081 22.5117 22.7836 23.3312 22.5643 23.5731C22.343 23.8159 22.1227 23.8453 21.7447 23.6641C21.3668 23.482 20.1498 23.0982 18.7085 21.8586C17.5854 20.8952 16.8276 19.7046 16.6073 19.3394C16.387 18.9761 16.5838 18.7793 16.7728 18.5982C16.9422 18.4366 17.1507 18.1742 17.3387 17.9617C17.5267 17.7493 17.5894 17.5975 17.7167 17.3547C17.842 17.1128 17.7793 16.8994 17.6843 16.7183C17.5894 16.5352 16.8354 14.7453 16.5192 14.0178C16.2137 13.309 15.9023 13.4039 15.6703 13.3922C15.45 13.3824 15.1993 13.3795 14.9457 13.3795C14.6961 13.3795 14.2858 13.4705 13.9392 13.8348C13.5936 14.199 12.6174 15.0782 12.6174 16.8681C12.6174 18.6589 13.9705 20.388 14.1595 20.6308C14.3485 20.8727 16.8227 24.5473 20.6109 26.1237C21.5117 26.4967 22.2147 26.7209 22.764 26.8894C23.6687 27.1664 24.4922 27.1263 25.1423 27.0333C25.8668 26.9285 27.3766 26.154 27.69 25.3051C28.0052 24.4562 28.0052 23.7278 27.9112 23.576C27.8192 23.4242 27.5666 23.3332 27.1887 23.1501V23.1501Z" fill="url(#paint0_linear_197_8012)"/>
<defs>
<linearGradient id="paint0_linear_197_8012" x1="23.7706" y1="5.54838" x2="23.7706" y2="34.922" gradientUnits="userSpaceOnUse">
<stop stop-color="#F8971D"/>
<stop offset="1" stop-color="#EE3124"/>
</linearGradient>
</defs>
</svg>
